# xmcd
#
# Track frame offsets: 
#        150
#        14455
#        28398
#        42700
#        55258
#        69375
#        85237
#        98742
#        113064
#        125778
#        140546
#        155189
#        168611
#        182371
#        195179
#        206701
#        219424
#        232003
#        246332
#        261045
#        276198
#        289791
#        304368
#        318650
#        334106
#
# Disc length: 4631 seconds
#
# Revision: 0
# Processed by: cddbd v1.5.2PL0 Copyright (c) Steve Scherf et al.
# Submitted via: ExactAudioCopy v0.99pb3
#
DISCID=85121519
DTITLE=Various Artist - When The Levee Breaks - Mississippi Blues: Rare Cuts 
DTITLE=1926-1941 [Disc C] 
DYEAR=1900
DGENRE=Blues
TTITLE0=King Solomon Hill/My Buddy Blind Papa Lemon
TTITLE1=Walter 'Buddy Boy' Hawkins/Snatch It Back Blues
TTITLE2=Willie '61' Blackwell/Machine Gun Blues
TTITLE3=Arthur Petties/Revenue Man Blues
TTITLE4=Freddie Spruell/Mr Freddie's Kokomo Blues
TTITLE5=Geeshie Wiley/Over To My House
TTITLE6=Jelly Jaw Short/Barefoot Blues
TTITLE7=Garfield Akers/Jumpin' And Shoutin' Blues
TTITLE8=Georgia Pine Boy/Look Who's Coming Down The Road
TTITLE9=Joe Calicott/Traveling Mama Blues
TTITLE10=William Harris/Leavin' Here Blues
TTITLE11=Otto Virgial/Got The Blues About Rome
TTITLE12=Mose Andrews/Young Heifer Blues
TTITLE13=Mississippi Jook Band/Skippy Whippy
TTITLE14=Sam Collins/Yellow Dog Blues
TTITLE15=Sam Butler/You Can't Keep No Brown
TTITLE16=Mattie Delaney/Tallahatchie River Blues
TTITLE17=Mississippi Bracey/Stered Gal
TTITLE18=Mississippi Mudder/Motherless And Fatherless Blues
TTITLE19=Willie '61' Blackwell/Don't Misuse Me, Baby
TTITLE20=Robert Lockwood/I'm Gonna Train My Baby
TTITLE21=Arthur Petties/Out On Santa Fe Blues
TTITLE22=Joe Stone/It's Hard Times
TTITLE23=Freddie Spruell/Your Good Man Is Gone
TTITLE24=Blind Joe Reynolds/Cold Woman Blues
EXTD=
EXTT0=
EXTT1=
EXTT2=
EXTT3=
EXTT4=
EXTT5=
EXTT6=
EXTT7=
EXTT8=
EXTT9=
EXTT10=
EXTT11=
EXTT12=
EXTT13=
EXTT14=
EXTT15=
EXTT16=
EXTT17=
EXTT18=
EXTT19=
EXTT20=
EXTT21=
EXTT22=
EXTT23=
EXTT24=
PLAYORDER=
